<?xml version="1.0" encoding="utf-8"?>
<!-- Generator: Adobe Illustrator 16.0.3, SVG Export Plug-In . SVG Version: 6.00 Build 0)  -->
<!DOCTYPE svg PUBLIC "-//W3C//DTD SVG 1.1//EN" "http://www.w3.org/Graphics/SVG/1.1/DTD/svg11.dtd">
<svg xmlns:xlink="http://www.w3.org/1999/xlink" version="1.1" id="Réteg_1" xmlns="http://www.w3.org/2000/svg" x="0px" y="0px"
	 width="90.71px" height="79.37px" viewBox="0 0 90.71 79.37" enable-background="new 0 0 90.71 79.37" xml:space="preserve">
<g>
	<path fill="#FFFFFF" d="M49.861,9.909c-0.938,1.357-2.517,2.442-2.688,4.095c-0.222,0.444-0.148,1.011-0.197,1.479
		c1.061,0.271,1.431-1.208,2.344-1.529c0.271-1.307,0.937-2.441,1.282-3.7c0.443,0.148,0.765,0.814,1.331,0.79
		c0.643,0.69,1.037,1.455,1.629,2.17c-0.074,0.321-0.469,0.444-0.74,0.542c-1.455,0.543-3.281,0.37-4.242,1.998l-0.666,0.888
		c0.222,0.419,0.888,0.049,1.332,0.074c0.938-0.567,2.072-0.642,2.959-1.283c0.592-0.493,0.814-1.307,1.555-1.554
		c0.813,1.159,1.109,2.639,1.135,4.045c-0.494,0.345-0.987-0.099-1.48-0.148c-1.727-0.986-3.625-0.321-5.303,0.345v0.124
		c0.543,0.247,1.209,0.37,1.751,0.419c0.79,0.666,1.825,0.32,2.812,0.32c0.691-0.345,1.578-0.419,2.294-0.468
		c0.05,0.986-0.296,2.146-0.739,3.107c0.023,0.271,0.023,0.69-0.271,0.74c-0.863-1.036-1.998-1.184-2.813-2.22
		c-1.061-0.542-2.367-0.468-3.428-0.962l-0.074,0.074c0.443,0.518,1.012,1.184,1.554,1.479c0.888,1.678,2.64,1.505,4.218,1.949
		c0.172,0.197,0.296,0.469,0.148,0.691c-0.913,0.863-1.776,1.899-2.837,2.417c-0.616-0.148-0.444-0.987-0.666-1.48
		c-0.05-1.825-1.851-2.984-3.034-4.119l-0.123,0.148c0.197,1.332,0.32,2.664,1.061,3.773l1.899,1.998
		c-0.345,0.296-0.567,1.085-1.282,0.814c-0.494,0.469-1.16-0.074-1.604,0.469c-0.443,0-0.74-0.271-1.159-0.197
		c-0.074-1.579,1.257-2.935,0.666-4.637c-0.124-0.789-0.247-1.652-0.518-2.293c-0.641,0.913-0.961,1.924-1.282,2.959
		c-0.173,1.308,0.271,2.368,0.395,3.576c0.172,0.074,0.123,0.247,0.147,0.395c-0.789,0.271-1.455,0.049-2.22-0.074
		c-0.395-0.444-1.479-0.419-1.282-1.061c1.011-1.381,2.417-2.589,2.417-4.39c-0.049-0.518,0.395-1.011,0.123-1.48
		c-1.06,1.184-2.589,2.121-2.54,3.922c-0.395,0.469-0.099,1.208-0.345,1.727c-0.518,0.247-0.913-0.37-1.332-0.469
		c-0.789-0.542-1.554-1.307-1.751-2.27l2.54-0.961c1.036-0.814,2.122-1.85,2.639-3.009l-0.148-0.148
		c-1.307,0.395-2.812,0.518-3.749,1.677l-1.702,1.825h-0.247c-0.642-1.135-1.036-2.417-0.962-3.773c0.419-0.494,0.863,0.098,1.356,0
		c1.406,0.616,3.034,0.345,4.365-0.271c0.247,0.049,0.419-0.124,0.617-0.247c-0.222-0.419-0.641-0.074-1.011-0.271
		c-1.505-0.789-3.502-0.592-4.908,0.271c-1.061-0.666,0-1.726-0.148-2.639c0.296-0.617,0.493-1.258,0.814-1.875
		c0.395,0.074,0.567,0.271,0.666,0.666c1.159,1.628,3.132,1.751,4.785,2.096c-1.16-0.937-1.875-2.812-3.7-2.688
		c-0.296-0.246-0.666-0.32-1.085-0.271c0.049-1.16,1.061-2.442,2.146-2.911c0.247-0.345,0.642-0.444,0.962-0.395l0.395,3.034
		l2.022,2.269c0.173,0.172,0.395,0.025,0.542-0.123c-0.32-0.592-0.222-1.356-0.345-2.022l0.074-0.321l-2.293-2.763
		c0.123-0.172,0.123-0.296,0.074-0.468c1.085-0.666,2.219-0.814,3.501-0.814c0.198-0.099,0.346,0.124,0.395,0.271
		c-0.418,1.456-1.455,3.182-0.666,4.637c0.124,0.419,0.592,0.839,0.271,1.282c0.174,0.247,0.346,0.025,0.518-0.074
		c1.382-1.652,0.247-3.403,0.222-5.303c-0.246-0.271-0.246-0.69,0-0.937C47.519,8.997,48.776,9.243,49.861,9.909z"/>
	<path fill="#FFFFFF" d="M83.701,74.875c-5.673-3.255-11.519-6.215-16.896-10.013c0.913-1.308,2.565-2.27,3.354-3.7l6.931-5.993
		v-0.197c-0.172,0.024-0.395-0.05-0.543,0.074c-4.464,2.812-9.002,5.45-13.215,8.176l-7.744-4.073l-0.791-0.428l-0.346-0.232
		c-2.521-1.345-4.893-2.516-7.279-4.257c0.296-5.007,4.834-8.806,9.15-10.556c3.059-1.234,6.709-1.062,9.891-0.198
		c1.061,0.666,2.368,0.813,3.428,1.554c1.037,0.74,2.195,1.628,2.961,2.689c0.123,0.098,0.418,0.073,0.469-0.074
		c-0.223-0.913-1.332-1.086-1.752-1.752c-0.863-0.813-1.875-1.356-2.762-1.948c-1.998-1.258-4.366-1.974-6.857-2.146
		c-2.318-0.173-4.439,0.172-6.733,0.74c-3.083,0.641-5.895,2.393-7.991,4.982l-0.148-0.148c0.025-2.418-0.592-4.415-0.271-6.857
		c0.963-0.123,2.023-0.493,3.108-0.542c1.258-0.987,3.059-0.666,4.218-1.875c3.354-1.455,7.252-3.207,11.099-1.825
		c0.592-0.124,1.11,0.518,1.702,0.419v-0.148c-0.912-0.493-1.924-0.666-2.836-1.134c-0.691,0.074-1.308-0.444-2.072-0.345
		c-5.031-0.247-8.781,2.639-13.59,2.885c-0.593,0-1.209,0.321-1.752,0c-0.023-1.406-0.246-2.91-0.074-4.217
		c3.527-0.173,6.389-2.047,9.151-3.922c1.924-0.888,3.329-2.713,4.711-4.365c0.123-0.173,0.073-0.567-0.198-0.543
		c-0.073,0.099-0.197,0.148-0.147,0.271c-1.727,2.146-4.192,3.7-6.659,4.637c-1.061,0.419-2.244,0.543-3.28,0.962
		c-0.987-0.172-1.851,0.567-2.837,0.395c-1.061,0.419-0.813-1.011-0.938-1.479c-0.443-0.839,0.42-2.195-0.739-2.491
		c0.024,1.159-0.321,2.393-0.148,3.576l-0.197,0.469c-0.346-0.173-0.888,0.049-1.208-0.222c-0.987-0.247-1.974,0.074-2.886-0.395
		c-0.937-0.444-2.294-0.296-3.157-1.085c-2.639-0.444-4.588-2.788-6.068-4.908l-0.271-0.049c-0.099,0.592,0.395,1.134,0.814,1.603
		c0.32,1.085,1.726,1.332,2.022,2.491c1.628,1.406,3.403,2.343,5.253,3.355c0.986-0.099,1.258,1.356,2.343,0.813
		c0.888,0.642,2.17,0.395,3.157,0.814c0.271,1.505-0.494,2.911-0.124,4.366c-1.431,0.345-2.935-0.148-4.242-0.271
		c-1.308-0.567-2.787-0.74-4.045-1.406c-0.962-0.197-1.825-0.641-2.738-0.937c-2.936-0.494-5.771-0.938-8.361,0.592
		c-0.395,0.172-0.839,0.197-1.209,0.469c0.025,0.123-0.049,0.271,0.075,0.345c2.343-1.48,6.042-1.529,8.607-0.666
		c2.195,0.938,4.588,1.529,6.536,2.96c1.702,0.69,3.305,1.036,5.105,1.529c-0.419,2.097-0.024,4.267-0.345,6.388l-0.123,0.148
		l-1.357-1.283c-1.258-0.912-2.392-2.121-3.897-2.49c-1.924-1.209-4.217-1.505-6.511-1.801c-1.924-0.642-4.094-0.197-5.994,0.123
		l-3.034,1.086c-1.998,1.479-4.76,2.516-5.303,5.179h0.123c0.814-1.455,2.294-2.812,3.774-3.65
		c4.933-3.526,11.864-2.121,16.673,0.69c2.713,2.664,5.525,5.525,5.377,9.472l-0.197,0.419l-3.7,1.727
		c-1.338,0.475-2.645,1.031-3.938,1.625l-0.576,0.236l0.013,0.027c-2.208,1.035-4.381,2.162-6.598,3.168
		c-0.863,0.37-1.751,0.912-2.688,0.938c-4.07-2.911-8.361-5.279-12.382-8.337c-0.049,0.124-0.172,0.173-0.124,0.345
		c3.33,2.887,5.871,6.586,9.003,9.816v0.271c-1.208,0.765-2.442,1.455-3.626,2.27L7.957,73.396c-2.614,1.281-4.908,3.329-7.67,4.242
		v0.197c-0.024,0.172,0.148,0.147,0.271,0.147c1.308-0.765,2.763-1.184,4.095-1.874c7.251-2.813,14.059-6.611,21.606-8.683
		l4.02,2.54c4.218,2.887,7.782,4.256,11.729,7.782h6.474c2.639-2.565,5.895-4.255,8.78-6.351c1.898-1.037,3.65-2.491,5.648-3.306
		c3.699,1.185,7.128,2.985,10.828,4.169l13.17,5.18l1.973,0.542c0.47,0.147,0.938,0.519,1.406,0.468v-0.123
		C88.141,77.07,85.921,75.937,83.701,74.875z M43.203,71.521c-0.567,1.85,0.074,4.193-0.814,5.92
		c-4.316-3.922-8.682-7.819-12.85-11.963c1.308-1.554,3.256-2.097,4.785-3.379l2.293-1.515l0.002,0.005l0.594-0.399l5.25-3.468
		l1.332-1.012C43.917,61.212,43.104,66.638,43.203,71.521z M58.623,66.178l-3.313,3.854c0,0-5.551,5.78-6.398,6.706
		c-0.848,0.924-0.678,0.16-0.924-2.313c-0.247-2.473-0.386-7.861-0.463-11.716s-0.154-7.394-0.154-7.394l1.387,1.15l3.393,2.313
		l1.234,0.992l-0.002,0.01l0.285,0.217l0.579,0.465l0.007-0.018l0.748,0.568l2.234,1.928l2.442,2.117L58.623,66.178z"/>
</g>
<g>
	<linearGradient id="SVGID_1_" gradientUnits="userSpaceOnUse" x1="45.9292" y1="29.0151" x2="45.9292" y2="7.9268">
		<stop  offset="0" style="stop-color:#FBC25E"/>
		<stop  offset="1" style="stop-color:#C68C00"/>
	</linearGradient>
	<path fill="url(#SVGID_1_)" d="M50,10.221c-0.937,1.356-2.516,2.442-2.688,4.094c-0.222,0.444-0.148,1.011-0.197,1.48
		c1.061,0.271,1.431-1.208,2.344-1.529c0.271-1.307,0.938-2.442,1.282-3.7c0.444,0.148,0.765,0.814,1.331,0.789
		c0.642,0.691,1.037,1.456,1.629,2.17c-0.074,0.321-0.469,0.444-0.74,0.542c-1.455,0.543-3.281,0.37-4.242,1.998l-0.666,0.888
		c0.222,0.419,0.888,0.049,1.332,0.074c0.938-0.567,2.071-0.641,2.959-1.282c0.592-0.494,0.814-1.308,1.555-1.554
		c0.813,1.159,1.109,2.64,1.135,4.045c-0.494,0.346-0.987-0.099-1.48-0.147c-1.727-0.987-3.626-0.321-5.303,0.345v0.124
		c0.543,0.247,1.209,0.37,1.751,0.419c0.79,0.666,1.825,0.321,2.812,0.321c0.691-0.346,1.579-0.419,2.295-0.469
		c0.049,0.986-0.297,2.146-0.74,3.107c0.024,0.271,0.024,0.691-0.271,0.74c-0.863-1.036-1.998-1.184-2.813-2.22
		c-1.061-0.542-2.367-0.469-3.428-0.962l-0.074,0.074c0.443,0.518,1.012,1.184,1.554,1.48c0.888,1.677,2.64,1.504,4.218,1.949
		c0.173,0.197,0.296,0.468,0.148,0.69c-0.913,0.863-1.776,1.899-2.837,2.417c-0.616-0.148-0.444-0.986-0.666-1.48
		c-0.049-1.825-1.85-2.984-3.034-4.119l-0.123,0.148c0.197,1.332,0.321,2.664,1.061,3.773L50,26.425
		c-0.345,0.296-0.567,1.085-1.282,0.814c-0.494,0.468-1.16-0.074-1.604,0.468c-0.443,0-0.74-0.271-1.159-0.197
		c-0.074-1.579,1.257-2.935,0.666-4.637c-0.124-0.79-0.247-1.652-0.519-2.293c-0.64,0.912-0.961,1.923-1.281,2.959
		c-0.173,1.307,0.271,2.368,0.395,3.577c0.172,0.074,0.123,0.247,0.148,0.394c-0.789,0.271-1.455,0.049-2.22-0.074
		c-0.395-0.444-1.479-0.419-1.282-1.061c1.011-1.381,2.417-2.59,2.417-4.39c-0.049-0.519,0.395-1.012,0.124-1.48
		c-1.061,1.184-2.59,2.121-2.541,3.921c-0.395,0.469-0.099,1.208-0.346,1.727c-0.518,0.246-0.913-0.371-1.332-0.469
		c-0.79-0.542-1.554-1.307-1.751-2.269l2.541-0.962c1.036-0.814,2.121-1.85,2.64-3.009l-0.148-0.148
		c-1.307,0.395-2.812,0.518-3.749,1.677L38.014,22.8h-0.247c-0.641-1.135-1.036-2.417-0.962-3.774c0.419-0.493,0.863,0.099,1.356,0
		c1.406,0.617,3.034,0.345,4.366-0.271c0.247,0.049,0.419-0.123,0.616-0.247c-0.222-0.419-0.641-0.074-1.011-0.271
		c-1.504-0.789-3.502-0.592-4.908,0.271c-1.06-0.666,0-1.727-0.148-2.639c0.296-0.617,0.494-1.258,0.814-1.875
		c0.395,0.074,0.567,0.271,0.666,0.666c1.159,1.628,3.132,1.751,4.785,2.097c-1.16-0.938-1.875-2.812-3.7-2.689
		c-0.296-0.247-0.666-0.32-1.085-0.271c0.049-1.16,1.061-2.442,2.146-2.911c0.247-0.346,0.641-0.444,0.962-0.395l0.395,3.034
		l2.022,2.27c0.173,0.172,0.395,0.024,0.542-0.124c-0.321-0.592-0.222-1.356-0.345-2.022l0.074-0.321l-2.293-2.762
		c0.123-0.172,0.123-0.296,0.074-0.468c1.085-0.666,2.22-0.814,3.502-0.814c0.198-0.099,0.346,0.124,0.395,0.271
		c-0.418,1.456-1.455,3.182-0.666,4.637c0.124,0.419,0.592,0.839,0.271,1.283c0.174,0.247,0.346,0.025,0.518-0.074
		c1.382-1.652,0.247-3.403,0.222-5.302c-0.246-0.272-0.246-0.691,0-0.938C47.657,9.308,48.915,9.555,50,10.221z"/>
	<linearGradient id="SVGID_2_" gradientUnits="userSpaceOnUse" x1="45.4243" y1="80.0508" x2="45.4243" y2="23.6629">
		<stop  offset="0" style="stop-color:#FBC25E"/>
		<stop  offset="1" style="stop-color:#C68C00"/>
	</linearGradient>
	<path fill="url(#SVGID_2_)" d="M83.84,75.188c-5.673-3.256-11.519-6.216-16.896-10.014c0.912-1.308,2.565-2.27,3.354-3.7
		l6.931-5.993v-0.197c-0.172,0.024-0.395-0.05-0.543,0.073c-4.464,2.812-9.002,5.451-13.215,8.177l-7.744-4.072l-0.791-0.43
		l-0.346-0.23c-2.521-1.346-4.893-2.518-7.279-4.258c0.297-5.007,4.834-8.806,9.15-10.557c3.059-1.233,6.709-1.061,9.891-0.197
		c1.061,0.666,2.368,0.814,3.429,1.555c1.036,0.739,2.194,1.627,2.96,2.688c0.123,0.1,0.419,0.074,0.469-0.074
		c-0.223-0.912-1.332-1.085-1.752-1.751c-0.863-0.813-1.874-1.356-2.762-1.948c-1.998-1.258-4.366-1.973-6.857-2.146
		c-2.318-0.172-4.439,0.174-6.732,0.74c-3.084,0.642-5.896,2.393-7.992,4.982l-0.148-0.148c0.025-2.416-0.592-4.414-0.271-6.856
		c0.962-0.123,2.022-0.493,3.107-0.542c1.258-0.987,3.059-0.667,4.218-1.875c3.354-1.455,7.252-3.207,11.099-1.825
		c0.593-0.123,1.11,0.518,1.702,0.419v-0.148c-0.912-0.493-1.924-0.666-2.836-1.135c-0.691,0.074-1.308-0.444-2.072-0.345
		c-5.031-0.247-8.781,2.639-13.59,2.886c-0.592,0-1.209,0.321-1.752,0c-0.024-1.406-0.246-2.91-0.074-4.218
		c3.527-0.173,6.389-2.047,9.151-3.921c1.924-0.888,3.329-2.713,4.711-4.366c0.123-0.173,0.073-0.567-0.198-0.543
		c-0.073,0.099-0.196,0.148-0.146,0.272c-1.728,2.146-4.193,3.699-6.66,4.637c-1.061,0.419-2.244,0.542-3.28,0.962
		c-0.987-0.173-1.851,0.567-2.837,0.395c-1.061,0.419-0.813-1.011-0.938-1.48c-0.443-0.838,0.42-2.195-0.739-2.491
		c0.024,1.159-0.32,2.393-0.147,3.577l-0.198,0.469c-0.345-0.173-0.888,0.049-1.209-0.223c-0.986-0.246-1.973,0.074-2.885-0.394
		c-0.938-0.444-2.294-0.296-3.157-1.085c-2.639-0.444-4.587-2.787-6.068-4.908l-0.271-0.049c-0.099,0.592,0.395,1.135,0.813,1.604
		c0.321,1.085,1.727,1.332,2.023,2.491c1.628,1.406,3.404,2.343,5.253,3.354c0.987-0.099,1.258,1.356,2.343,0.814
		c0.888,0.641,2.17,0.395,3.157,0.814c0.272,1.504-0.494,2.91-0.124,4.366c-1.431,0.345-2.935-0.148-4.242-0.271
		c-1.307-0.567-2.787-0.74-4.045-1.406c-0.962-0.197-1.826-0.641-2.738-0.938c-2.935-0.493-5.771-0.937-8.361,0.592
		c-0.395,0.172-0.839,0.197-1.209,0.468c0.025,0.124-0.049,0.271,0.074,0.345c2.343-1.48,6.043-1.529,8.608-0.666
		c2.195,0.937,4.588,1.529,6.536,2.959c1.702,0.69,3.305,1.036,5.106,1.53c-0.419,2.096-0.025,4.267-0.346,6.388l-0.124,0.147
		l-1.356-1.282c-1.258-0.913-2.393-2.121-3.897-2.491c-1.923-1.209-4.217-1.504-6.511-1.801c-1.924-0.641-4.094-0.197-5.994,0.123
		l-3.034,1.086c-1.998,1.48-4.76,2.516-5.303,5.18h0.123c0.814-1.455,2.294-2.813,3.774-3.65c4.933-3.527,11.864-2.121,16.673,0.691
		c2.713,2.663,5.524,5.523,5.377,9.471l-0.198,0.419l-3.7,1.727c-1.337,0.475-2.645,1.03-3.938,1.625l-0.576,0.235l0.013,0.027
		c-2.208,1.036-4.381,2.164-6.598,3.168c-0.863,0.371-1.751,0.913-2.688,0.938c-4.07-2.91-8.361-5.277-12.382-8.336
		c-0.049,0.123-0.172,0.172-0.123,0.345c3.33,2.886,5.87,6.585,9.002,9.817v0.271c-1.208,0.765-2.442,1.455-3.625,2.27L8.095,73.707
		c-2.614,1.283-4.908,3.33-7.67,4.242v0.197c-0.025,0.173,0.147,0.148,0.271,0.148c1.308-0.766,2.763-1.184,4.095-1.875
		c7.251-2.812,14.059-6.609,21.606-8.682l4.021,2.541c4.218,2.885,7.782,4.254,11.728,7.781h6.474
		c2.639-2.565,5.895-4.254,8.78-6.352c1.899-1.035,3.65-2.49,5.648-3.305c3.699,1.184,7.128,2.984,10.828,4.168l13.17,5.18
		l1.974,0.543c0.468,0.147,0.937,0.518,1.405,0.469v-0.123C88.279,77.383,86.06,76.248,83.84,75.188z M43.341,71.832
		c-0.567,1.851,0.074,4.193-0.814,5.92c-4.316-3.922-8.682-7.818-12.85-11.962c1.307-1.554,3.255-2.097,4.785-3.38l2.293-1.514
		l0.002,0.006l0.594-0.4l5.25-3.468l1.332-1.012C44.056,61.523,43.243,66.949,43.341,71.832z M58.763,66.49l-3.314,3.854
		c0,0-5.55,5.78-6.398,6.705c-0.848,0.926-0.678,0.16-0.924-2.313c-0.247-2.472-0.386-7.861-0.463-11.715s-0.154-7.394-0.154-7.394
		l1.388,1.149l3.392,2.313l1.235,0.992l-0.003,0.01l0.285,0.217l0.579,0.466l0.007-0.019l0.748,0.57l2.234,1.926l2.442,2.118
		L58.763,66.49z"/>
</g>
<g>
	<linearGradient id="SVGID_3_" gradientUnits="userSpaceOnUse" x1="45.7095" y1="9.875" x2="45.7095" y2="-0.6321">
		<stop  offset="0" style="stop-color:#009D3C"/>
		<stop  offset="1" style="stop-color:#006D32"/>
	</linearGradient>
	<path fill="url(#SVGID_3_)" d="M46.029,0.602c1.134,2.614,2.763,5.007,4.045,7.547c-0.493,0.493-0.765-0.345-1.233-0.345
		c-1.135-0.148-2.318-0.222-3.427-0.469c-0.075,0.469-0.667,0.222-0.938,0.197c-1.134-0.222-1.973,0.641-3.034,0.814
		c-0.345-0.469,0.321-0.838,0.542-1.208c0.962-1.702,1.875-3.404,2.911-5.057c0.519-0.395,0.542-1.011,0.938-1.479H46.029z"/>
	<linearGradient id="SVGID_4_" gradientUnits="userSpaceOnUse" x1="38.438" y1="31.4331" x2="38.438" y2="17.5962">
		<stop  offset="0" style="stop-color:#009D3C"/>
		<stop  offset="1" style="stop-color:#006D32"/>
	</linearGradient>
	<path fill="url(#SVGID_4_)" d="M35.597,18.829c0.296,0.715-0.296,1.455,0.197,2.096c0.542,1.973,1.184,3.725,2.836,5.18
		c0.888,0.444,1.554,1.381,2.565,1.529c0.493,0.493,1.208,0.444,1.727,0.814c0.444,0.074,1.036,0.148,1.554,0.197
		c-0.124,0.518,0.346,1.332-0.395,1.554c-0.592-0.074-1.356-0.124-2.022-0.198c-2.047-0.666-4.341-0.764-6.043-2.22
		c-1.702-0.567-2.318-2.466-3.65-3.576c0.346-1.135,1.184-2.047,1.628-3.157c0.543-0.715,0.79-1.529,1.406-2.22H35.597z"/>
	<linearGradient id="SVGID_5_" gradientUnits="userSpaceOnUse" x1="53.5273" y1="31.3291" x2="53.5273" y2="17.8204">
		<stop  offset="0" style="stop-color:#009D3C"/>
		<stop  offset="1" style="stop-color:#006D32"/>
	</linearGradient>
	<path fill="url(#SVGID_5_)" d="M57.474,20.777c0.641,1.159,1.184,2.393,1.948,3.429c-0.519,1.159-1.825,1.998-2.688,2.836
		c-2.516,1.702-5.549,2.318-8.559,2.959l-0.32,0.074c-0.271-0.321-0.05-0.863-0.223-1.209c0.346-0.345,0.889-0.172,1.209-0.493
		c0.789,0.222,1.085-0.641,1.825-0.518c2.837-1.702,5.919-4.514,5.796-8.016C57.104,19.248,57.276,20.407,57.474,20.777z"/>
	<linearGradient id="SVGID_6_" gradientUnits="userSpaceOnUse" x1="56.7227" y1="38.165" x2="56.7227" y2="25.66">
		<stop  offset="0" style="stop-color:#009D3C"/>
		<stop  offset="1" style="stop-color:#006D32"/>
	</linearGradient>
	<path fill="url(#SVGID_6_)" d="M61.173,26.894c1.036,2.763,3.01,5.13,4.439,7.745l-0.147,0.148
		c-5.476-2.368-10.704,0.74-15.662,1.998c-0.592,0.124-1.258,0.025-1.825,0.148c-0.049-0.567-0.197-1.085-0.123-1.677
		c2.664-0.32,5.13-1.603,7.448-2.959c1.948-1.776,4.415-2.96,5.599-5.402H61.173z"/>
	<linearGradient id="SVGID_7_" gradientUnits="userSpaceOnUse" x1="35.0986" y1="38.3394" x2="35.0986" y2="25.3778">
		<stop  offset="0" style="stop-color:#009D3C"/>
		<stop  offset="1" style="stop-color:#006D32"/>
	</linearGradient>
	<path fill="url(#SVGID_7_)" d="M32.785,29.262c2.763,2.984,6.29,4.711,10.014,5.648c0.567,0.148,1.357,0.395,0.938,1.209
		l-0.074,0.74c-1.307,0.173-2.417-0.543-3.675-0.666c-0.863-0.518-2.022-0.321-2.836-0.938c-2.245-0.542-4.415-1.455-6.783-1.43
		c-1.332-0.419-2.738,0.172-3.971,0.542c-0.247-0.37,0.444-0.37,0.395-0.74c1.012-2.146,2.146-4.217,3.429-6.24
		c0.271-0.419,0.765-0.395,1.011,0.049L32.785,29.262z"/>
	<linearGradient id="SVGID_8_" gradientUnits="userSpaceOnUse" x1="32.3057" y1="45.6582" x2="32.3057" y2="35.2618">
		<stop  offset="0" style="stop-color:#009D3C"/>
		<stop  offset="1" style="stop-color:#006D32"/>
	</linearGradient>
	<path fill="url(#SVGID_8_)" d="M36.336,38.881c1.258,1.184,2.96,1.307,4.316,2.294c0.962,0.05,1.578,0.962,2.688,0.739
		c-0.074,0.814,0.148,1.702-0.198,2.467c-1.011-0.074-1.603-1.159-2.565-1.604c-2.121-1.135-4.292-2.146-6.783-2.342
		c-2.688,0.073-5.919-0.568-8.411,0.518c-1.455,0.369-2.762,1.109-4.119,1.75c0.222-0.789,0.863-1.603,1.282-2.416
		c2.022-3.207,6.487-3.478,9.964-2.812C33.919,37.722,34.955,38.511,36.336,38.881z"/>
	<linearGradient id="SVGID_9_" gradientUnits="userSpaceOnUse" x1="59.5166" y1="45.8379" x2="59.5166" y2="35.3215">
		<stop  offset="0" style="stop-color:#009D3C"/>
		<stop  offset="1" style="stop-color:#006D32"/>
	</linearGradient>
	<path fill="url(#SVGID_9_)" d="M68.548,39.547c1.012,1.258,1.431,2.762,2.367,4.045c0,0.173,0.05,0.443-0.197,0.469
		c-3.822-3.453-9.594-3.773-14.478-3.107c-2.195,0.862-4.489,1.504-6.511,2.762c-0.617,0-0.963,0.765-1.48,0.889
		c-0.32-0.814,0.049-1.949-0.074-2.763c2.27,0.173,4.268-1.085,6.266-1.949c3.205-1.628,7.127-3.33,10.9-1.751
		C66.476,38.412,67.513,39.029,68.548,39.547z"/>
	<linearGradient id="SVGID_10_" gradientUnits="userSpaceOnUse" x1="28.8179" y1="62.7412" x2="28.8179" y2="42.0684">
		<stop  offset="0" style="stop-color:#009D3C"/>
		<stop  offset="1" style="stop-color:#006D32"/>
	</linearGradient>
	<path fill="url(#SVGID_10_)" d="M33.574,44.184c0.519,0.567,1.406,0.247,1.899,0.888c1.061,0.05,1.579,1.431,2.615,1.53l2.762,2.91
		c0.888,1.479,1.825,3.132,1.603,4.908c-2.22,1.381-4.686,2.195-7.054,3.28c-1.233,0.296-2.293,0.986-3.428,1.479
		c-1.406,0.493-2.861,0.838-4.094,1.701c-0.518-0.146-0.789,0.519-1.283,0.198c-2.664-2.048-5.574-3.379-8.287-5.451
		c-1.011-0.592-2.022-1.505-3.157-2.022c2.318-3.133,5.352-6.265,8.682-8.262c2.393-1.209,5.253-1.9,8.065-1.48
		C32.39,44.158,33.105,44.085,33.574,44.184z"/>
	<linearGradient id="SVGID_11_" gradientUnits="userSpaceOnUse" x1="62.9141" y1="62.707" x2="62.9141" y2="43.2956">
		<stop  offset="0" style="stop-color:#009D3C"/>
		<stop  offset="1" style="stop-color:#006D32"/>
	</linearGradient>
	<path fill="url(#SVGID_11_)" d="M63.985,44.875c1.208-0.247,1.948,0.689,3.033,0.739c1.283,0.739,2.367,1.505,3.625,2.343
		c1.851,0.666,2.689,2.615,4.366,3.576c0.616,0.814,1.282,1.629,1.825,2.467c0.049,0.543-0.395,0.099-0.617,0.42
		c-0.739,0.74-1.701,0.986-2.613,1.332c-1.998,1.381-4.242,2.17-6.314,3.379c-1.529,0.887-3.033,2.071-4.711,2.343
		c-4.514-2.614-9.076-5.056-13.59-7.597c0.246-1.035,0.592-2.072,1.208-2.959c1.356-2.344,3.527-4.145,5.919-5.181
		c1.309-0.444,2.517-1.085,3.972-1.208C61.396,44.652,62.776,44.554,63.985,44.875z"/>
	<linearGradient id="SVGID_12_" gradientUnits="userSpaceOnUse" x1="11.647" y1="76.8398" x2="11.647" y2="54.7902">
		<stop  offset="0" style="stop-color:#009D3C"/>
		<stop  offset="1" style="stop-color:#006D32"/>
	</linearGradient>
	<path fill="url(#SVGID_12_)" d="M20.995,64.705c-1.949,0.961-3.872,2.663-5.969,3.576c-1.579,1.061-3.404,1.627-4.859,2.885
		c-2.713,1.234-5.253,3.133-7.868,4.44l0.074-0.419c3.848-6.019,7.177-12.234,10.63-18.425c-0.074-0.321,0.197-0.519,0.395-0.74
		C15.89,58.76,18.455,61.893,20.995,64.705z"/>
	<linearGradient id="SVGID_13_" gradientUnits="userSpaceOnUse" x1="79.4248" y1="78.3643" x2="79.4248" y2="55.2523">
		<stop  offset="0" style="stop-color:#009D3C"/>
		<stop  offset="1" style="stop-color:#006D32"/>
	</linearGradient>
	<path fill="url(#SVGID_13_)" d="M78.389,56.639c2.344,4.563,5.229,8.93,7.72,13.443c1.506,2.145,2.565,4.439,3.848,6.658
		c-0.369,0.297-0.542-0.246-0.887-0.197c-3.947-2.393-8.091-4.34-12.037-6.782c-2.516-1.11-4.735-2.984-7.251-4.045
		c-0.271-0.32-0.765-0.37-0.888-0.739c3.059-2.787,5.969-5.648,8.953-8.485C77.97,56.639,78.241,56.491,78.389,56.639z"/>
	<linearGradient id="SVGID_14_" gradientUnits="userSpaceOnUse" x1="53.0957" y1="75.2236" x2="53.0957" y2="56.3477">
		<stop  offset="0" style="stop-color:#009D3C"/>
		<stop  offset="1" style="stop-color:#006D32"/>
	</linearGradient>
	<path fill="url(#SVGID_14_)" d="M50.197,59.18c2.269,2.467,5.056,3.946,7.399,6.339v0.197c-2.467,2.466-4.686,5.5-7.325,7.942
		c-0.123,0.271-0.493,0.246-0.739,0.32l-0.148-0.123c0.049-5.057-0.223-10.088-0.789-15.07C49.112,57.749,49.63,59.008,50.197,59.18
		z"/>
	<linearGradient id="SVGID_15_" gradientUnits="userSpaceOnUse" x1="37.3228" y1="76.9131" x2="37.3228" y2="57.2613">
		<stop  offset="0" style="stop-color:#009D3C"/>
		<stop  offset="1" style="stop-color:#006D32"/>
	</linearGradient>
	<path fill="url(#SVGID_15_)" d="M42.873,58.785l-0.814,13.047c-0.197,1.234-0.173,2.64-0.271,3.848
		c-0.296-0.246-0.592-0.739-0.938-1.011c-2.984-3.28-6.24-5.327-9.077-8.608c0.542-0.789,1.529-1.184,2.294-1.75
		c2.393-1.234,4.538-3.084,6.856-4.514l1.529-1.209C42.65,58.514,42.749,58.687,42.873,58.785z"/>
	<linearGradient id="SVGID_16_" gradientUnits="userSpaceOnUse" x1="22.0215" y1="79.3555" x2="22.0215" y2="67.9114">
		<stop  offset="0" style="stop-color:#009D3C"/>
		<stop  offset="1" style="stop-color:#006D32"/>
	</linearGradient>
	<path fill="url(#SVGID_16_)" d="M26.52,69.613c3.034,1.701,6.117,3.33,8.953,5.524c1.381,0.666,2.615,1.628,4.021,2.22
		c0.123,0.074,0.172,0.197,0.148,0.32L39.173,77.9l-9.545-0.074l-13.122,0.197L16.235,77.9c-3.625,0.222-7.498-0.173-11.099,0.049
		c-0.271-0.271-0.74,0.1-0.74-0.395c4.785-1.924,9.718-3.576,14.38-5.796c1.036-0.247,2.072-0.519,2.96-1.061
		c1.381-0.592,2.812-1.011,4.193-1.554L26.52,69.613z"/>
	<linearGradient id="SVGID_17_" gradientUnits="userSpaceOnUse" x1="67.5859" y1="79.4541" x2="67.5859" y2="68.5281">
		<stop  offset="0" style="stop-color:#009D3C"/>
		<stop  offset="1" style="stop-color:#006D32"/>
	</linearGradient>
	<path fill="url(#SVGID_17_)" d="M66.747,71.02c0.592,0.221,1.036,0.739,1.752,0.689c2.466,1.406,5.277,2.023,7.793,3.354
		c2.837,0.79,5.402,2.22,8.287,2.886c0.025,0.197-0.221,0.197-0.345,0.271c-2.96-0.37-6.067-0.123-9.225-0.197
		c-8.065-0.049-15.785,0.123-23.949-0.123c-0.073,0.148-0.247,0.123-0.395,0.123c-0.124-0.049-0.05-0.173-0.074-0.271
		c2.812-1.578,5.501-3.552,8.14-5.377c0.518-0.123,1.012-0.346,1.356-0.74c1.11-0.615,2.294-1.109,3.354-1.874
		C64.577,70.106,65.662,70.551,66.747,71.02z"/>
</g>
</svg>
